# Blender 4.3.2
# www.blender.org
mtllib slope_test_slope_long32.mtl
o Cube
v -0.500000 -0.500000 -2.500000
v 0.500000 -0.500000 -2.500000
v 0.500000 -0.500000 0.500000
v -0.500000 -0.500000 0.500000
v 0.500000 0.500000 0.500001
v -0.500000 0.500000 0.500000
v 0.000000 -0.500000 -2.500000
v -0.500000 -0.500000 -1.000000
v 0.500000 -0.500000 -1.000000
v 0.000000 -0.500000 0.500000
v 0.500000 0.000000 0.500000
v -0.500000 0.000000 0.500000
v 0.500000 -0.000000 -0.999999
v 0.000000 0.500000 0.500000
v -0.500000 -0.000000 -1.000000
v 0.000000 -0.500000 -1.000000
v 0.000000 -0.000000 -1.000000
v 0.000000 0.000000 0.500000
vn -0.0000 -1.0000 -0.0000
vn -0.0000 0.9487 -0.3162
vn -0.0000 -0.0000 1.0000
vn 1.0000 -0.0000 -0.0000
vn -1.0000 -0.0000 -0.0000
vt 0.375000 0.625000
vt 0.250000 0.625000
vt 0.250000 0.250000
vt 0.375000 0.250000
vt 0.125000 0.625000
vt 0.125000 1.000000
vt 0.000000 1.000000
vt 0.000000 0.625000
vt 0.625000 0.375000
vt 0.625000 0.250000
vt 0.750000 0.250000
vt 0.750000 0.375000
vt 1.000000 0.750000
vt 0.750000 0.875000
vt 0.750000 0.750000
vt 0.750000 0.625000
vt 1.000000 0.625000
vt 0.500000 0.625000
vt 0.500000 0.250000
vt 0.500000 1.000000
vt 0.375000 1.000000
vt 0.250000 1.000000
vt 0.125000 0.250000
vt 0.000000 0.250000
vt 0.625000 0.500000
vt 0.750000 0.500000
vt 0.500000 0.500000
vt 0.500000 0.375000
vt 0.500000 0.875000
vt 0.500000 0.750000
vt 1.000000 0.500000
s 1
usemtl Material.001
f 16/1/1 9/2/1 3/3/1 10/4/1
f 17/5/2 14/6/2 5/7/2 13/8/2
f 18/9/3 14/10/3 6/11/3 12/12/3
f 2/13/4 13/14/4 9/15/4
f 6/13/5 15/16/5 12/17/5
f 8/18/1 16/1/1 10/4/1 4/19/1
f 1/20/1 7/21/1 16/1/1 8/18/1
f 7/21/1 2/22/1 9/2/1 16/1/1
f 7/23/2 17/5/2 13/8/2 2/24/2
f 1/3/2 15/2/2 17/5/2 7/23/2
f 15/2/2 6/22/2 14/6/2 17/5/2
f 10/25/3 18/9/3 12/12/3 4/26/3
f 3/27/3 11/28/3 18/9/3 10/25/3
f 11/28/3 5/19/3 14/10/3 18/9/3
f 9/15/4 11/29/4 3/30/4
f 9/15/4 13/14/4 11/29/4
f 13/14/4 5/20/4 11/29/4
f 12/17/5 8/26/5 4/31/5
f 12/17/5 15/16/5 8/26/5
f 15/16/5 1/27/5 8/26/5
