# Blender 4.3.2
# www.blender.org
mtllib slope_test_slope_long3.mtl
o Cube
v -0.500000 -0.500000 -2.500000
v 0.500000 -0.500000 -2.500000
v 0.500000 -0.500000 0.500000
v -0.500000 -0.500000 0.500000
v 0.500000 0.500000 0.500001
v -0.500000 0.500000 0.500000
v 0.000000 -0.500000 -2.500000
v -0.500000 -0.500000 -1.000000
v 0.500000 -0.500000 -1.000000
v 0.000000 -0.500000 0.500000
v 0.500000 0.000000 0.500000
v -0.500000 0.000000 0.500000
v 0.500000 -0.000000 -0.999999
v 0.000000 0.500000 0.500000
v -0.500000 -0.000000 -1.000000
v 0.000000 -0.500000 -1.000000
v 0.000000 -0.000000 -1.000000
v 0.000000 0.000000 0.500000
vn -0.0000 -1.0000 -0.0000
vn -0.0000 0.9487 -0.3162
vn -0.0000 -0.0000 1.0000
vn 1.0000 -0.0000 -0.0000
vn -1.0000 -0.0000 -0.0000
vt -0.508922 1.511712
vt -1.012479 1.511712
vt -1.012479 0.001039
vt -0.508922 0.001039
vt -1.516037 1.511712
vt -1.516037 3.022386
vt -2.019595 3.022386
vt -2.019595 1.511712
vt 0.498194 0.504597
vt 0.498194 0.001039
vt 1.001751 0.001039
vt 1.001751 0.504597
vt 2.008867 2.015270
vt 1.001751 2.518827
vt 1.001751 2.015270
vt 1.001751 1.511712
vt 2.008867 1.511712
vt -0.005364 1.511712
vt -0.005364 0.001039
vt -0.005364 3.022386
vt -0.508922 3.022386
vt -1.012479 3.022386
vt -1.516037 0.001039
vt -2.019595 0.001039
vt 0.498194 1.008154
vt 1.001751 1.008154
vt -0.005364 1.008154
vt -0.005364 0.504597
vt -0.005364 2.518827
vt -0.005364 2.015270
vt 2.008867 1.008154
s 1
usemtl Material.001
f 16/1/1 9/2/1 3/3/1 10/4/1
f 17/5/2 14/6/2 5/7/2 13/8/2
f 18/9/3 14/10/3 6/11/3 12/12/3
f 2/13/4 13/14/4 9/15/4
f 6/13/5 15/16/5 12/17/5
f 8/18/1 16/1/1 10/4/1 4/19/1
f 1/20/1 7/21/1 16/1/1 8/18/1
f 7/21/1 2/22/1 9/2/1 16/1/1
f 7/23/2 17/5/2 13/8/2 2/24/2
f 1/3/2 15/2/2 17/5/2 7/23/2
f 15/2/2 6/22/2 14/6/2 17/5/2
f 10/25/3 18/9/3 12/12/3 4/26/3
f 3/27/3 11/28/3 18/9/3 10/25/3
f 11/28/3 5/19/3 14/10/3 18/9/3
f 9/15/4 11/29/4 3/30/4
f 9/15/4 13/14/4 11/29/4
f 13/14/4 5/20/4 11/29/4
f 12/17/5 8/26/5 4/31/5
f 12/17/5 15/16/5 8/26/5
f 15/16/5 1/27/5 8/26/5
