# Blender 4.3.2
# www.blender.org
mtllib slope_test_icorner4.mtl
o Cube_Cube.000
v 3.500000 0.500000 0.500000
v -0.500000 0.500000 0.500000
v -0.500000 -0.500000 0.500000
v 3.500000 -0.500000 0.500000
v -0.500000 -0.500000 -3.500000
v 3.500001 0.500000 -3.500000
v 3.499999 -0.500000 0.500001
v 3.500000 -0.500000 -3.500000
v -0.500001 -0.500000 -3.500000
vn 1.0000 -0.0000 -0.0000
vn -1.0000 -0.0000 -0.0000
vn -0.0000 0.9701 -0.2425
vn -0.0000 -0.0000 -1.0000
vn -0.0000 -1.0000 -0.0000
vn -0.0000 -0.0000 1.0000
vn -0.2425 0.9701 -0.0000
vt 1.967614 -1.962655
vt 1.967614 -3.932358
vt 3.937316 -3.932358
vt 3.937316 -1.962655
vt -0.002088 0.007047
vt 1.967614 0.007047
vt -1.610345 -2.795146
vt -0.002088 -3.932358
vt -0.002088 -0.520731
vt -3.218602 1.448972
vt -3.218602 -0.520731
vt -1.248900 -0.520731
vt -0.002088 -1.962655
vt 1.967614 1.976750
vt -0.002088 1.976750
vt -1.610345 -0.520731
vt -3.218602 -1.657942
vt -1.610345 -3.932358
s 1
usemtl None
f 6/1/1 1/2/1 7/3/1 8/4/1
f 2/5/2 5/1/2 3/6/2
f 2/7/3 1/8/3 5/9/3
f 6/10/4 8/11/4 9/12/4
f 9/1/5 8/13/5 7/8/5 3/2/5
f 3/14/6 7/15/6 1/5/6 2/6/6
f 1/16/7 6/17/7 9/18/7
l 1 4
l 3 4
